# xmcd
#
# Track frame offsets:
#	150
#	6259
#	17515
#	31205
#	42560
#	52337
#	62404
#	69544
#	77505
#	86638
#	94810
#	107047
#	114893
#	130088
#	137660
#	152060
#	160759
#	169099
#
# Disc length: 2409 seconds
#
# Revision: 0
# Processed by: cddbd v1.5.1PL0 Copyright (c) Steve Scherf et al.
# Submitted via: audiograbber 1.82.02
#
DISCID=e1096712
DTITLE=Jim Reeves (On Air) - Live On Air
DYEAR=1900
DGENRE=Country
TTITLE0=Have I Told You Lately That I Love You?
TTITLE1=Just Call Me Lonesome
TTITLE2=How's The World Treating You
TTITLE3=If Heartaches Are The Fashion
TTITLE4=Home
TTITLE5=Dear Hearts And Gentle People
TTITLE6=I'm Beginning To Forget You
TTITLE7=Roly Poly
TTITLE8=The Wind Up
TTITLE9=Sweet Evening Breeze
TTITLE10=Your Old Love Letters
TTITLE11='till The End Of The World
TTITLE12=Making Believe
TTITLE13=Oklahoma Hills
TTITLE14=Highway To Nowhere
TTITLE15=If You Were Mine
TTITLE16=Everywhere You Go
TTITLE17=I Love You More
EXTD=MCPS QED44\n
EXTT0=
EXTT1=
EXTT2=
EXTT3=
EXTT4=
EXTT5=
EXTT6=
EXTT7=
EXTT8=
EXTT9=
EXTT10=
EXTT11=
EXTT12=
EXTT13=
EXTT14=
EXTT15=
EXTT16=
EXTT17=
PLAYORDER=
